<svg width="437" height="106" viewBox="0 0 437 106" fill="none" xmlns="http://www.w3.org/2000/svg">
<g clip-path="url(#clip0_4003_8)">
<path d="M58.6115 84.2531C58.6115 84.9433 58.5238 85.5434 58.3776 86.1135C58.2315 86.6837 57.9683 87.1638 57.6175 87.5539C57.2667 87.944 56.8574 88.274 56.3311 88.4841C55.8049 88.6941 55.2202 88.8142 54.5185 88.8142C53.8168 88.8142 53.2029 88.6941 52.7059 88.4841C52.2089 88.274 51.7703 87.944 51.4195 87.5539C51.0687 87.1638 50.8348 86.6837 50.6886 86.1135C50.5132 85.5434 50.4547 84.9433 50.4547 84.2531C50.4547 83.5629 50.6009 82.5427 50.8933 81.8825C51.1856 81.2224 51.6241 80.6822 52.2381 80.3221C52.8521 79.9621 53.6122 79.752 54.5477 79.752C55.4833 79.752 56.2434 79.9321 56.8281 80.3221C57.4421 80.6822 57.8806 81.2224 58.173 81.9125C58.4654 82.6027 58.6115 83.3829 58.6115 84.3131V84.2531ZM52.355 84.2531C52.355 84.8532 52.4428 85.3934 52.5889 85.8435C52.7351 86.2936 52.969 86.6237 53.2906 86.8637C53.6122 87.1038 54.0215 87.2238 54.5185 87.2238C55.0155 87.2238 55.4541 87.1038 55.7757 86.8637C56.0972 86.6237 56.3311 86.2936 56.4773 85.8435C56.6235 85.3934 56.7112 84.8832 56.7112 84.2531C56.7112 83.3229 56.5358 82.6027 56.2142 82.0626C55.8926 81.5224 55.3371 81.2824 54.5477 81.2824C53.7584 81.2824 53.6122 81.4024 53.2906 81.6425C52.969 81.8825 52.7351 82.2126 52.5889 82.6627C52.4428 83.1128 52.355 83.6229 52.355 84.2531Z" fill="white"/>
<path d="M67.4409 88.6641H65.6575V79.872H70.5691V81.4024H67.4409V83.6829H70.3352V85.2133H67.4409V88.6941V88.6641Z" fill="white"/>
<path d="M79.3399 88.6641H77.5565V79.872H82.4682V81.4024H79.3399V83.6829H82.2343V85.2133H79.3399V88.6941V88.6641Z" fill="white"/>
<path d="M92.6422 88.6641H88.7246V87.6139L89.7771 87.1338V81.4324L88.7246 80.9523V79.902H92.6422V80.9523L91.5897 81.4324V87.1338L92.6422 87.6139V88.6641Z" fill="white"/>
<path d="M103.021 81.2824C102.67 81.2824 102.378 81.3424 102.115 81.4924C101.852 81.6425 101.618 81.8225 101.442 82.0926C101.267 82.3627 101.121 82.6627 101.033 83.0228C100.945 83.3829 100.887 83.803 100.887 84.2531C100.887 84.7032 100.945 85.4234 101.121 85.8435C101.267 86.2936 101.501 86.6237 101.822 86.8637C102.144 87.1038 102.553 87.1938 103.05 87.1938C103.547 87.1938 103.752 87.1638 104.103 87.0738C104.454 86.9838 104.834 86.8637 105.243 86.7437V88.3041C104.863 88.4541 104.483 88.5741 104.132 88.6342C103.752 88.6942 103.343 88.7542 102.904 88.7542C102.027 88.7542 101.296 88.5741 100.711 88.184C100.127 87.794 99.7173 87.2838 99.4542 86.5937C99.1911 85.9035 99.0449 85.1233 99.0449 84.2231C99.0449 83.3229 99.1326 82.9628 99.308 82.3927C99.4835 81.8225 99.7466 81.3724 100.068 80.9523C100.419 80.5622 100.828 80.2321 101.325 80.0221C101.822 79.812 102.407 79.692 103.05 79.692C103.693 79.692 103.898 79.752 104.337 79.8421C104.775 79.9621 105.184 80.1121 105.565 80.2922L104.98 81.7925C104.658 81.6425 104.337 81.4924 104.015 81.3724C103.693 81.2524 103.372 81.1924 103.05 81.1924L103.021 81.2824Z" fill="white"/>
<path d="M115.534 88.6641H111.616V87.6139L112.669 87.1338V81.4324L111.616 80.9523V79.902H115.534V80.9523L114.481 81.4324V87.1338L115.534 87.6139V88.6641Z" fill="white"/>
<path d="M127.521 88.6641L126.907 86.5636H123.778L123.165 88.6641H121.206L124.246 79.812H126.468L129.509 88.6641H127.55H127.521ZM125.854 82.9328C125.825 82.7827 125.767 82.6327 125.708 82.3926C125.65 82.1826 125.591 81.9725 125.503 81.7325C125.416 81.4924 125.386 81.3124 125.357 81.1623C125.328 81.3124 125.269 81.5224 125.182 81.7625C125.123 82.0025 125.036 82.2426 124.977 82.4526C124.919 82.6627 124.86 82.8127 124.831 82.9028L124.217 84.9432H126.439L125.825 82.9028L125.854 82.9328Z" fill="white"/>
<path d="M135.853 88.6641V79.872H137.666V87.1337H141.145V88.6641H135.853Z" fill="white"/>
<path d="M159.651 88.6642H157.838V81.4024H155.5V79.842H161.961V81.4024H159.622V88.6642H159.651Z" fill="white"/>
<path d="M173.509 88.6641H168.568V79.872H173.509V81.4024H170.381V83.3528H173.275V84.8832H170.381V87.1638H173.509V88.6941V88.6641Z" fill="white"/>
<path d="M184.238 81.2824C183.888 81.2824 183.595 81.3424 183.332 81.4924C183.069 81.6425 182.835 81.8225 182.66 82.0926C182.484 82.3627 182.338 82.6627 182.25 83.0228C182.163 83.3829 182.104 83.803 182.104 84.2531C182.104 84.7032 182.163 85.4234 182.338 85.8435C182.484 86.2936 182.718 86.6237 183.04 86.8637C183.361 87.1038 183.771 87.1938 184.268 87.1938C184.765 87.1938 184.969 87.1638 185.32 87.0738C185.671 86.9838 186.051 86.8637 186.46 86.7437V88.3041C186.08 88.4541 185.7 88.5741 185.349 88.6342C184.999 88.6942 184.56 88.7542 184.121 88.7542C183.244 88.7542 182.514 88.5741 181.929 88.184C181.344 87.794 180.935 87.2838 180.672 86.5937C180.409 85.9035 180.262 85.1233 180.262 84.2231C180.262 83.3229 180.35 82.9628 180.525 82.3927C180.701 81.8225 180.964 81.3724 181.286 80.9523C181.636 80.5622 182.046 80.2321 182.543 80.0221C183.04 79.812 183.624 79.692 184.268 79.692C184.911 79.692 185.116 79.752 185.554 79.8421C185.993 79.9621 186.402 80.1121 186.782 80.2922L186.197 81.7925C185.876 81.6425 185.554 81.4924 185.232 81.3724C184.911 81.2524 184.589 81.1924 184.268 81.1924L184.238 81.2824Z" fill="white"/>
<path d="M200.552 88.6641H198.739V84.8532H195.348V88.6641H193.535V79.872H195.348V83.3228H198.739V79.872H200.552V88.6641Z" fill="white"/>
<path d="M215.609 88.6641H213.299L209.557 82.0025H209.498C209.498 82.2726 209.498 82.5727 209.527 82.8427C209.527 83.1128 209.527 83.4129 209.557 83.6829C209.557 83.953 209.557 84.2531 209.557 84.5231V88.6641H207.949V79.872H210.229L213.942 86.4736H213.971C213.971 86.2035 213.971 85.9335 213.971 85.6634C213.971 85.3933 213.971 85.1233 213.971 84.8532C213.971 84.5831 213.971 84.3131 213.971 84.043V79.872H215.609V88.6641Z" fill="white"/>
<path d="M230.84 84.2531C230.84 84.9433 230.753 85.5434 230.607 86.1135C230.46 86.6837 230.197 87.1638 229.876 87.5539C229.554 87.944 229.116 88.274 228.589 88.4841C228.063 88.6941 227.478 88.8142 226.777 88.8142C226.075 88.8142 225.461 88.6941 224.964 88.4841C224.438 88.274 224.029 87.944 223.678 87.5539C223.327 87.1638 223.093 86.6837 222.947 86.1135C222.771 85.5434 222.713 84.9433 222.713 84.2531C222.713 83.5629 222.859 82.5427 223.151 81.8825C223.444 81.2224 223.882 80.6822 224.496 80.3221C225.11 79.9621 225.87 79.752 226.806 79.752C227.741 79.752 228.502 79.9321 229.086 80.3221C229.671 80.6822 230.139 81.2224 230.431 81.9125C230.724 82.6027 230.87 83.3829 230.87 84.3131L230.84 84.2531ZM224.584 84.2531C224.584 84.8532 224.672 85.3934 224.818 85.8435C224.964 86.2936 225.198 86.6237 225.52 86.8637C225.841 87.1038 226.25 87.2238 226.747 87.2238C227.244 87.2238 227.683 87.1038 228.005 86.8637C228.326 86.6237 228.56 86.2936 228.706 85.8435C228.852 85.3934 228.94 84.8832 228.94 84.2531C228.94 83.3229 228.765 82.6027 228.443 82.0626C228.092 81.5224 227.566 81.2824 226.777 81.2824C225.987 81.2824 225.841 81.4024 225.52 81.6425C225.198 81.8825 224.964 82.2126 224.818 82.6627C224.672 83.1128 224.584 83.6229 224.584 84.2531Z" fill="white"/>
<path d="M237.916 88.6641V79.872H239.728V87.1337H243.207V88.6641H237.916Z" fill="white"/>
<path d="M257.533 84.2531C257.533 84.9433 257.445 85.5434 257.299 86.1135C257.153 86.6837 256.89 87.1638 256.568 87.5539C256.246 87.944 255.808 88.274 255.282 88.4841C254.755 88.6941 254.171 88.8142 253.469 88.8142C252.767 88.8142 252.153 88.6941 251.656 88.4841C251.13 88.274 250.721 87.944 250.37 87.5539C250.019 87.1638 249.785 86.6837 249.639 86.1135C249.464 85.5434 249.405 84.9433 249.405 84.2531C249.405 83.5629 249.551 82.5427 249.844 81.8825C250.136 81.2224 250.575 80.6822 251.189 80.3221C251.803 79.9621 252.563 79.752 253.498 79.752C254.434 79.752 255.194 79.9321 255.779 80.3221C256.363 80.6822 256.831 81.2224 257.124 81.9125C257.416 82.6027 257.562 83.3829 257.562 84.3131L257.533 84.2531ZM251.276 84.2531C251.276 84.8532 251.364 85.3934 251.51 85.8435C251.656 86.2936 251.89 86.6237 252.212 86.8637C252.534 87.1038 252.943 87.2238 253.44 87.2238C253.937 87.2238 254.375 87.1038 254.697 86.8637C255.019 86.6237 255.252 86.2936 255.399 85.8435C255.545 85.3934 255.633 84.8832 255.633 84.2531C255.633 83.3229 255.457 82.6027 255.136 82.0626C254.785 81.5224 254.258 81.2824 253.469 81.2824C252.68 81.2824 252.534 81.4024 252.212 81.6425C251.89 81.8825 251.656 82.2126 251.51 82.6627C251.364 83.1128 251.276 83.6229 251.276 84.2531Z" fill="white"/>
<path d="M267.853 83.7129H271.245V88.274C270.806 88.4241 270.338 88.5441 269.841 88.6341C269.344 88.7241 268.818 88.7842 268.175 88.7842C267.532 88.7842 266.596 88.6041 266.011 88.274C265.427 87.944 264.959 87.4038 264.666 86.7437C264.374 86.0835 264.199 85.2433 264.199 84.2531C264.199 83.2628 264.374 82.5427 264.725 81.8525C265.076 81.1923 265.573 80.6522 266.245 80.2921C266.918 79.932 267.707 79.722 268.672 79.722C269.637 79.722 269.578 79.782 270.017 79.872C270.455 79.962 270.865 80.1121 271.215 80.2621L270.631 81.7625C270.368 81.6124 270.075 81.4924 269.724 81.4324C269.373 81.3724 269.023 81.2824 268.672 81.2824C268.146 81.2824 267.678 81.4024 267.298 81.6424C266.918 81.8825 266.596 82.2426 266.391 82.6927C266.187 83.1428 266.07 83.6529 266.07 84.2831C266.07 84.9132 266.158 85.3633 266.304 85.8134C266.45 86.2635 266.684 86.5936 267.035 86.8637C267.356 87.1037 267.795 87.2238 268.321 87.2238C268.847 87.2238 268.789 87.2238 268.964 87.1938C269.14 87.1638 269.315 87.1338 269.461 87.1038V85.2733H267.853V83.7129Z" fill="white"/>
<path d="M281.243 83.4729L283.027 79.842H284.985L282.15 85.2133V88.6341H280.337V85.2733L277.501 79.842H279.46L281.243 83.4729Z" fill="white"/>
<path d="M302.498 79.842C303.609 79.842 304.398 80.0821 304.924 80.5622C305.421 81.0423 305.685 81.7325 305.685 82.5727C305.685 83.4129 305.626 83.3229 305.509 83.683C305.392 84.043 305.217 84.3431 304.954 84.6132C304.691 84.8832 304.34 85.0933 303.93 85.2733C303.521 85.4534 302.995 85.5134 302.352 85.5134H301.562V88.6341H299.75V79.842H302.498ZM302.41 81.3724H301.592V83.983H302.176C302.527 83.983 302.819 83.953 303.053 83.833C303.287 83.743 303.492 83.5929 303.638 83.4129C303.784 83.2028 303.843 82.9628 303.843 82.6627C303.843 82.3626 303.726 81.9125 303.492 81.7025C303.258 81.4924 302.907 81.4024 302.41 81.4024V81.3724Z" fill="white"/>
<path d="M317.262 88.6641L316.648 86.5636H313.52L312.906 88.6641H310.947L313.958 79.812H316.18L319.221 88.6641H317.262ZM315.566 82.9328C315.537 82.7827 315.479 82.6327 315.42 82.3926C315.362 82.1826 315.303 81.9725 315.215 81.7325C315.128 81.4924 315.099 81.3124 315.069 81.1623C315.04 81.3124 314.982 81.5224 314.894 81.7625C314.835 82.0025 314.748 82.2426 314.689 82.4526C314.631 82.6627 314.572 82.8127 314.543 82.9028L313.929 84.9432H316.151L315.537 82.9028L315.566 82.9328Z" fill="white"/>
<path d="M328.079 79.842C328.869 79.842 329.483 79.9321 330.009 80.1421C330.506 80.3222 330.886 80.6222 331.149 81.0123C331.383 81.4024 331.529 81.8825 331.529 82.4827C331.529 83.0828 331.471 83.2329 331.295 83.5329C331.12 83.833 330.944 84.1031 330.711 84.2831C330.477 84.4932 330.213 84.6732 329.921 84.7932L332.435 88.6341H330.418L328.372 85.2433H327.407V88.6341H325.594V79.842H328.079ZM327.933 81.3724H327.378V83.743H327.962C328.547 83.743 328.986 83.653 329.249 83.4429C329.512 83.2329 329.629 82.9328 329.629 82.5427C329.629 82.1526 329.57 82.0326 329.453 81.8825C329.336 81.7025 329.132 81.5825 328.898 81.5224C328.664 81.4624 328.313 81.4024 327.933 81.4024V81.3724Z" fill="white"/>
<path d="M342.083 88.6642H340.271V81.4024H337.932V79.842H344.422V81.4024H342.083V88.6642Z" fill="white"/>
<path d="M358.631 88.6641H356.321L352.579 82.0025H352.521C352.521 82.2726 352.521 82.5727 352.55 82.8427C352.55 83.1128 352.55 83.4129 352.579 83.6829C352.579 83.953 352.579 84.2531 352.579 84.5231V88.6641H350.942V79.872H353.222L356.935 86.4736H356.964C356.964 86.2035 356.964 85.9335 356.964 85.6634C356.964 85.3933 356.964 85.1233 356.964 84.8532C356.964 84.5831 356.964 84.3131 356.964 84.043V79.872H358.602V88.6641H358.631Z" fill="white"/>
<path d="M371.027 88.6641H366.086V79.872H371.027V81.4024H367.899V83.3528H370.793V84.8832H367.899V87.1638H371.027V88.6941V88.6641Z" fill="white"/>
<path d="M380.587 79.842C381.376 79.842 381.99 79.9321 382.517 80.1421C383.014 80.3222 383.394 80.6222 383.657 81.0123C383.891 81.4024 384.037 81.8825 384.037 82.4827C384.037 83.0828 383.978 83.2329 383.803 83.5329C383.628 83.833 383.452 84.1031 383.218 84.2831C382.984 84.4932 382.721 84.6732 382.429 84.7932L384.943 88.6341H382.926L380.879 85.2433H379.915V88.6341H378.102V79.842H380.616H380.587ZM380.47 81.3724H379.915V83.743H380.499C381.113 83.743 381.523 83.653 381.786 83.4429C382.049 83.2329 382.166 82.9328 382.166 82.5427C382.166 82.1526 382.107 82.0326 381.99 81.8825C381.873 81.7325 381.669 81.5825 381.435 81.5224C381.172 81.4324 380.85 81.4024 380.47 81.4024V81.3724Z" fill="white"/>
<path d="M54.08 105.258H51.7703L48.0281 98.5965H47.9697C47.9697 98.8666 47.9697 99.1666 47.9989 99.4367C47.9989 99.7068 47.9989 100.007 48.0281 100.277C48.0281 100.547 48.0281 100.847 48.0281 101.117V105.258H46.4202V96.466H48.7006L52.4135 103.068H52.4428C52.4428 102.798 52.4428 102.527 52.4428 102.257C52.4428 101.987 52.4428 101.717 52.4428 101.447C52.4428 101.177 52.4428 100.907 52.4428 100.637V96.466H54.08V105.258Z" fill="white"/>
<path d="M66.4469 105.258H61.506V96.466H66.4469V97.9964H63.3186V99.9468H66.213V101.477H63.3186V103.758H66.4469V105.288V105.258Z" fill="white"/>
<path d="M81.2986 100.847C81.2986 101.537 81.2109 102.137 81.0647 102.707C80.9185 103.278 80.6554 103.758 80.3046 104.148C79.9538 104.538 79.5445 104.868 79.0182 105.078C78.492 105.288 77.9072 105.408 77.2056 105.408C76.5039 105.408 75.89 105.288 75.393 105.078C74.8667 104.868 74.4574 104.538 74.1066 104.148C73.7557 103.758 73.5219 103.278 73.3464 102.707C73.171 102.137 73.1125 101.537 73.1125 100.847C73.1125 100.157 73.2587 99.1366 73.5511 98.4765C73.8434 97.8163 74.282 97.2762 74.8959 96.9161C75.5099 96.556 76.27 96.3459 77.2056 96.3459C78.1411 96.3459 78.9013 96.526 79.5152 96.9161C80.1292 97.2762 80.5677 97.8163 80.8601 98.5065C81.1524 99.1966 81.2986 99.9768 81.2986 100.907V100.847ZM75.0421 100.847C75.0421 101.447 75.1298 101.987 75.276 102.437C75.4222 102.888 75.6561 103.218 75.9777 103.458C76.2993 103.698 76.7086 103.818 77.2056 103.818C77.7026 103.818 78.1411 103.698 78.4627 103.458C78.7843 103.218 79.0182 102.888 79.1644 102.437C79.3106 101.987 79.3983 101.477 79.3983 100.847C79.3983 99.9168 79.2229 99.1966 78.9013 98.6565C78.5797 98.1164 78.0242 97.8763 77.2348 97.8763C76.4454 97.8763 76.2993 97.9963 75.9777 98.2364C75.6561 98.4765 75.4222 98.8065 75.276 99.2566C75.1298 99.7068 75.0421 100.217 75.0421 100.847Z" fill="white"/>
<path d="M91.999 105.258L89.9233 98.3565H89.8648C89.8648 98.5065 89.8648 98.7766 89.8941 99.1066C89.8941 99.4367 89.9233 99.7968 89.9525 100.157C89.9525 100.517 89.9525 100.877 89.9525 101.177V105.258H88.3153V96.466H90.8004L92.8176 103.188H92.8469L95.0103 96.466H97.4954V105.258H95.7997V101.087C95.7997 100.817 95.7997 100.487 95.7997 100.127C95.7997 99.7668 95.7997 99.4067 95.8289 99.1066C95.8582 98.8066 95.8289 98.5365 95.8582 98.3865H95.7997L93.5778 105.288H91.9113L91.999 105.258Z" fill="white"/>
<path d="M117.025 105.258L114.949 98.3565H114.891C114.891 98.5065 114.891 98.7766 114.92 99.1066C114.92 99.4367 114.949 99.7968 114.978 100.157C114.978 100.517 114.978 100.877 114.978 101.177V105.258H113.37V96.466H115.856L117.873 103.188H117.902L120.066 96.466H122.551V105.258H120.855V101.087C120.855 100.817 120.855 100.487 120.855 100.127C120.855 99.7668 120.855 99.4067 120.884 99.1066C120.913 98.8066 120.884 98.5365 120.913 98.3865H120.855L118.633 105.288H116.967L117.025 105.258Z" fill="white"/>
<path d="M132.549 105.378C131.906 105.378 131.351 105.258 130.883 105.018C130.415 104.778 130.064 104.388 129.83 103.878C129.596 103.368 129.479 102.708 129.479 101.927C129.479 101.147 129.626 100.427 129.889 99.9169C130.152 99.4067 130.532 99.0167 131.029 98.7766C131.526 98.5365 132.081 98.4165 132.695 98.4165C133.309 98.4165 133.543 98.4465 133.865 98.5665C134.186 98.6566 134.479 98.7766 134.742 98.8966L134.216 100.307C133.923 100.187 133.66 100.097 133.426 100.007C133.192 99.9469 132.929 99.8869 132.695 99.8869C132.462 99.8869 132.111 99.9469 131.906 100.127C131.701 100.307 131.555 100.517 131.438 100.817C131.321 101.117 131.292 101.477 131.292 101.957C131.292 102.437 131.351 102.768 131.438 103.068C131.526 103.368 131.701 103.578 131.906 103.728C132.111 103.878 132.374 103.938 132.666 103.938C132.959 103.938 133.368 103.878 133.66 103.788C133.953 103.698 134.216 103.548 134.508 103.368V104.928C134.245 105.108 133.953 105.228 133.66 105.318C133.368 105.408 132.988 105.438 132.52 105.438L132.549 105.378Z" fill="white"/>
<path d="M141.466 105.258V96.466H143.279V103.728H146.758V105.258H141.466Z" fill="white"/>
<path d="M158.803 105.258L158.189 103.158H155.061L154.447 105.258H152.488L155.529 96.406H157.751L160.791 105.258H158.832H158.803ZM157.107 99.5568C157.078 99.4067 157.02 99.2567 156.961 99.0166C156.903 98.8066 156.844 98.5965 156.757 98.3565C156.669 98.1164 156.64 97.9364 156.61 97.7863C156.581 97.9364 156.523 98.1464 156.435 98.3865C156.377 98.6265 156.289 98.8666 156.23 99.0766C156.172 99.2867 156.113 99.4367 156.084 99.5268L155.47 101.567H157.692L157.078 99.5268L157.107 99.5568Z" fill="white"/>
<path d="M169.62 96.466C170.41 96.466 171.053 96.556 171.55 96.7661C172.047 96.9461 172.427 97.2462 172.69 97.6363C172.953 98.0264 173.07 98.5065 173.07 99.1066C173.07 99.7068 173.012 99.8568 172.836 100.157C172.661 100.457 172.486 100.727 172.252 100.907C172.018 101.117 171.755 101.297 171.462 101.417L173.977 105.258H171.959L169.913 101.867H168.948V105.258H167.135V96.466H169.65H169.62ZM169.503 97.9964H168.948V100.367H169.533C170.117 100.367 170.556 100.277 170.819 100.067C171.082 99.8568 171.199 99.5567 171.199 99.1667C171.199 98.7766 171.141 98.6565 171.024 98.5065C170.907 98.3265 170.702 98.2064 170.468 98.1464C170.234 98.0864 169.884 98.0264 169.503 98.0264V97.9964Z" fill="white"/>
<path d="M185.291 105.258H180.35V96.466H185.291V97.9964H182.163V99.9468H185.057V101.477H182.163V103.758H185.291V105.288V105.258Z" fill="white"/>
<path d="M199.967 105.258H197.658L193.916 98.5965H193.857C193.857 98.8666 193.857 99.1666 193.886 99.4367C193.886 99.7068 193.886 100.007 193.916 100.277C193.916 100.547 193.916 100.847 193.916 101.117V105.258H192.308V96.466H194.588L198.301 103.068H198.33C198.33 102.798 198.33 102.527 198.33 102.257C198.33 101.987 198.33 101.717 198.33 101.447C198.33 101.177 198.33 100.907 198.33 100.637V96.466H199.967V105.258Z" fill="white"/>
<path d="M217.597 105.258H215.813V96.466H220.725V97.9964H217.597V100.277H220.491V101.807H217.597V105.288V105.258Z" fill="white"/>
<path d="M235.489 100.847C235.489 101.537 235.401 102.137 235.255 102.707C235.109 103.278 234.846 103.758 234.524 104.148C234.203 104.538 233.764 104.868 233.238 105.078C232.712 105.288 232.127 105.408 231.425 105.408C230.724 105.408 230.11 105.288 229.613 105.078C229.086 104.868 228.677 104.538 228.326 104.148C227.975 103.758 227.742 103.278 227.595 102.707C227.42 102.137 227.361 101.537 227.361 100.847C227.361 100.157 227.508 99.1366 227.8 98.4765C228.092 97.8163 228.531 97.2762 229.145 96.9161C229.759 96.556 230.519 96.3459 231.454 96.3459C232.39 96.3459 233.15 96.526 233.735 96.9161C234.32 97.2762 234.787 97.8163 235.08 98.5065C235.372 99.1966 235.518 99.9768 235.518 100.907L235.489 100.847ZM229.233 100.847C229.233 101.447 229.32 101.987 229.466 102.437C229.613 102.888 229.846 103.218 230.168 103.458C230.49 103.698 230.899 103.818 231.396 103.818C231.893 103.818 232.332 103.698 232.653 103.458C232.975 103.218 233.209 102.888 233.355 102.437C233.501 101.987 233.589 101.477 233.589 100.847C233.589 99.9168 233.413 99.1966 233.092 98.6565C232.741 98.1164 232.215 97.8763 231.425 97.8763C230.636 97.8763 230.49 97.9963 230.168 98.2364C229.846 98.4765 229.613 98.8065 229.466 99.2566C229.32 99.7068 229.233 100.217 229.233 100.847Z" fill="white"/>
<path d="M245.049 96.466C245.839 96.466 246.452 96.556 246.979 96.7661C247.476 96.9461 247.856 97.2462 248.119 97.6363C248.353 98.0264 248.499 98.5065 248.499 99.1066C248.499 99.7068 248.441 99.8568 248.265 100.157C248.09 100.457 247.914 100.727 247.68 100.907C247.446 101.117 247.183 101.297 246.891 101.417L249.405 105.258H247.388L245.342 101.867H244.377V105.258H242.564V96.466H245.078H245.049ZM244.903 97.9964H244.347V100.367H244.932C245.517 100.367 245.955 100.277 246.219 100.067C246.482 99.8568 246.599 99.5567 246.599 99.1667C246.599 98.7766 246.54 98.6565 246.423 98.5065C246.306 98.3265 246.102 98.2064 245.868 98.1464C245.634 98.0864 245.283 98.0264 244.903 98.0264V97.9964Z" fill="white"/>
<path d="M259.375 105.258L257.299 98.3565H257.24C257.24 98.5065 257.24 98.7766 257.27 99.1066C257.27 99.4367 257.299 99.7968 257.328 100.157C257.328 100.517 257.328 100.877 257.328 101.177V105.258H255.72V96.466H258.205L260.223 103.188H260.252L262.386 96.466H264.871V105.258H263.175V101.087C263.175 100.817 263.175 100.487 263.175 100.127C263.175 99.7668 263.175 99.4067 263.205 99.1066C263.234 98.8066 263.205 98.5365 263.205 98.3865H263.146L260.924 105.288H259.258L259.375 105.258Z" fill="white"/>
<path d="M279.343 102.137C279.343 102.737 279.197 103.308 278.963 103.788C278.729 104.268 278.32 104.658 277.793 104.958C277.267 105.258 276.595 105.378 275.805 105.378C274.665 105.378 273.817 105.078 273.203 104.478C272.619 103.878 272.326 103.098 272.326 102.107V96.436H274.139V101.837C274.139 102.557 274.285 103.068 274.577 103.368C274.87 103.668 275.308 103.818 275.864 103.818C276.419 103.818 276.595 103.758 276.829 103.608C277.063 103.458 277.267 103.248 277.384 102.948C277.501 102.647 277.56 102.287 277.56 101.837V96.466H279.372V102.167L279.343 102.137Z" fill="white"/>
<path d="M286.74 105.258V96.466H288.552V103.728H292.031V105.258H286.74Z" fill="white"/>
<path d="M304.077 105.258L303.463 103.158H300.334L299.72 105.258H297.762L300.773 96.406H302.995L306.035 105.258H304.077ZM302.381 99.5568C302.352 99.4067 302.293 99.2567 302.235 99.0166C302.176 98.8066 302.118 98.5965 302.03 98.3565C301.942 98.1164 301.913 97.9364 301.884 97.7863C301.855 97.9364 301.796 98.1464 301.708 98.3865C301.65 98.6265 301.562 98.8666 301.504 99.0766C301.445 99.2867 301.387 99.4367 301.358 99.5268L300.744 101.567H302.966L302.352 99.5268L302.381 99.5568Z" fill="white"/>
<path d="M325.74 105.258H320.799V96.466H325.74V97.9964H322.612V99.9468H325.506V101.477H322.612V103.758H325.74V105.288V105.258Z" fill="white"/>
<path d="M344.539 105.258H342.726V97.9964H340.388V96.436H346.878V97.9964H344.539V105.258Z" fill="white"/>
<path d="M358.397 105.258H353.456V96.466H358.397V97.9964H355.269V99.9468H358.163V101.477H355.269V103.758H358.397V105.288V105.258Z" fill="white"/>
<path d="M370.735 105.258L370.121 103.158H366.992L366.378 105.258H364.42L367.46 96.406H369.682L372.723 105.258H370.764H370.735ZM369.039 99.5568C369.01 99.4067 368.951 99.2567 368.893 99.0166C368.834 98.8066 368.776 98.5965 368.688 98.3565C368.63 98.1464 368.571 97.9364 368.542 97.7863C368.513 97.9364 368.454 98.1464 368.366 98.3865C368.308 98.6265 368.249 98.8666 368.162 99.0766C368.103 99.2867 368.045 99.4367 368.016 99.5268L367.402 101.567H369.624L369.01 99.5268L369.039 99.5568Z" fill="white"/>
<path d="M382.692 105.258L380.616 98.3565H380.558C380.558 98.5065 380.558 98.7766 380.587 99.1066C380.587 99.4367 380.616 99.7968 380.646 100.157C380.646 100.517 380.646 100.877 380.646 101.177V105.258H379.008V96.466H381.493L383.511 103.188H383.54L385.703 96.466H388.188V105.258H386.493V101.087C386.493 100.817 386.493 100.487 386.493 100.127C386.493 99.7668 386.493 99.4067 386.522 99.1066C386.551 98.8066 386.522 98.5365 386.522 98.3865H386.463L384.242 105.288H382.575L382.692 105.258Z" fill="white"/>
<path d="M8.96914 32.8509C8.91067 32.8509 8.82297 32.8509 8.76449 32.8509C5.46083 33.0309 1.80634 34.3812 0.783081 32.2507C1.25086 33.6911 2.39106 37.3219 3.38508 40.5927C4.34987 43.7735 5.05153 46.9543 5.95784 47.6444C8.79373 49.7749 14.4947 47.7945 17.8569 50.3151C21.0436 52.6856 20.3127 60.7876 23.2655 61.1477C26.2768 61.5077 25.9845 56.9466 26.9785 53.3758C27.8263 50.3151 29.025 46.5642 31.9486 42.1531C30.9253 40.7128 29.3174 38.9723 26.92 37.1719C25.1366 35.8516 23.0316 34.8914 20.8682 34.2312C15.8981 32.7609 12.0682 32.7308 8.99838 32.8509H8.96914Z" fill="#126491"/>
<path d="M26.949 53.3157C26.949 53.3757 26.9198 53.4657 26.8906 53.5257C26.0427 56.7965 26.1597 60.7875 23.8793 61.1476C25.3703 61.1476 29.0833 61.1476 32.3869 61.2076C35.6321 61.2676 38.7896 61.5677 39.7252 60.8775C42.561 58.747 42.5026 52.5955 45.8647 50.0749C49.0514 47.7043 56.3604 50.9151 57.5883 48.1544C58.8747 45.3038 54.5478 44.1935 51.5072 42.123C48.9345 40.3526 45.8355 38.012 42.6195 33.781C40.9823 34.3511 38.8481 35.3714 36.4507 37.1418C34.6673 38.4621 33.1471 40.2326 31.8607 42.153C28.9663 46.5641 27.7677 50.285 26.9198 53.3157H26.949Z" fill="#F5E6D1"/>
<path d="M51.478 42.093C51.5365 42.123 51.595 42.183 51.6534 42.213C54.4016 44.0735 58.173 45.1837 57.7637 47.5243C58.2315 46.084 59.3717 42.4231 60.4534 39.2123C61.5059 36.0616 62.7631 33.0608 62.4123 31.9506C61.3305 28.5297 55.6003 26.6693 54.3139 22.6183C53.086 18.7774 58.3192 12.6559 56.1558 10.5854C53.9046 8.45494 51.5365 12.3559 48.7006 14.6364C46.274 16.5869 43.1458 18.8974 38.2341 20.7279C38.2341 22.4983 38.5265 24.8989 39.462 27.7796C40.1345 29.9101 41.3039 31.9506 42.678 33.811C45.8647 37.982 48.9345 40.3226 51.478 42.093Z" fill="#BFDDC1"/>
<path d="M22.3885 8.96516C22.3885 8.90514 22.33 8.81512 22.3008 8.75511C21.1314 5.57434 18.734 2.42359 20.3712 0.773193C19.1726 1.67341 16.1613 3.92395 13.4423 5.87442C10.7819 7.79488 8.06291 9.44527 7.71208 10.5555C6.63035 13.9764 10.1971 18.9275 8.91075 23.0085C7.71208 26.8794 -0.0354468 28.6499 0.549272 31.6506C1.13399 34.7113 5.28549 33.0009 8.91075 32.8809C12.0098 32.7609 15.8397 32.7909 20.8682 34.2612C21.8623 32.8209 23.0025 30.7204 23.9088 27.8097C24.5812 25.6792 24.8151 23.3086 24.7566 20.998C24.5812 15.6868 23.441 11.9659 22.3593 8.99516L22.3885 8.96516Z" fill="#F3CDB2"/>
<path d="M48.6422 14.6965C48.7007 14.6364 48.7591 14.6064 48.8176 14.5464C51.3904 12.4159 53.5538 9.08511 55.6003 10.1954C54.4017 9.29516 51.3904 7.04463 48.7299 5.00414C46.1279 2.99365 43.7598 0.863144 42.6196 0.863144C39.1113 0.863144 35.6322 5.87434 31.4515 5.87434C27.2707 5.87434 23.47 -1.11733 20.8973 0.383029C18.2368 1.9134 21.1019 5.42424 22.3591 8.93508C23.4408 11.9358 24.581 15.6867 24.7564 21.028C26.4229 21.5681 28.7033 22.0182 31.6853 22.0182C34.6674 22.0182 36.1292 21.5081 38.2634 20.7579C43.1166 18.9575 46.2448 16.6769 48.6714 14.6965H48.6422Z" fill="#17162B"/>
<path d="M24.7566 20.698C24.7566 20.788 24.7566 20.878 24.7566 20.9981C24.7566 21.2381 24.7566 21.5082 24.7566 21.7783C23.8502 22.1984 23.2363 23.1286 23.2363 24.2088C23.2363 25.079 23.6456 25.8292 24.2888 26.3393C24.2303 26.6694 24.1134 27.0295 24.0257 27.3596C22.9732 26.7294 22.2715 25.5592 22.2423 24.2388C22.2423 22.6185 23.2655 21.2081 24.6981 20.758L24.7566 20.698ZM20.2542 24.2088C20.2542 24.3889 20.2542 24.5689 20.2542 24.749C20.3127 24.749 20.3712 24.809 20.4296 24.839C20.4296 24.839 20.4589 24.839 20.4881 24.839C20.605 24.899 20.722 24.959 20.8389 25.019C20.8974 25.049 20.9559 25.079 21.0144 25.1091C21.0436 25.1091 21.1021 25.1691 21.1313 25.1991C21.1898 25.2291 21.2482 25.2891 21.3359 25.3191C21.2482 24.959 21.1898 24.5689 21.1898 24.1788C21.1898 21.9583 22.6808 20.0678 24.6688 19.5577C24.6688 19.2276 24.6104 18.8976 24.5811 18.5675C22.0668 19.1376 20.1957 21.4482 20.225 24.2088H20.2542ZM18.2077 23.9688C18.5293 24.0588 18.8509 24.1488 19.1725 24.2689V24.2088C19.1725 20.878 21.4529 18.1174 24.4934 17.4572C24.4642 17.1271 24.4057 16.7971 24.3472 16.497C20.8974 17.1872 18.2662 20.2779 18.2077 23.9988V23.9688ZM16.1612 23.6687C16.2781 23.6687 16.3951 23.6687 16.5413 23.6687C16.7459 23.6687 16.9213 23.6987 17.126 23.7287C17.3014 19.5577 20.2835 16.1369 24.1718 15.3567C24.1134 15.0266 24.0549 14.6966 23.9672 14.3965C19.6695 15.2667 16.3658 19.0476 16.1612 23.6687ZM15.9273 4.79419C18.2077 4.88421 20.2542 5.90445 21.7453 7.46483C21.4237 6.74465 21.0728 6.05449 20.7805 5.39433C19.4648 4.52412 17.9153 3.95399 16.2781 3.83396C16.1904 3.89397 16.1027 3.95399 16.015 4.014C16.015 4.04401 16.015 4.10402 16.015 4.13403C16.015 4.34408 15.9858 4.55413 15.9565 4.76418L15.9273 4.79419ZM15.0502 24.779C14.9625 24.779 14.8456 24.779 14.7579 24.779C14.524 24.779 14.3193 24.749 14.0854 24.719C13.91 28.7399 11.1618 32.0707 7.47811 33.0009C7.94589 32.9409 8.41366 32.9109 8.88144 32.8809C9.34921 32.8809 9.81699 32.8809 10.314 32.8509C13.0037 31.2005 14.8748 28.2298 15.021 24.809L15.0502 24.779ZM19.0555 3.26382V3.20381C19.0555 2.66368 19.114 2.15355 19.231 1.64343C18.9094 1.88349 18.5293 2.15355 18.12 2.45363C18.12 2.63367 18.0908 2.81371 18.0908 2.99376C18.4124 3.08378 18.7339 3.1738 19.0555 3.29383V3.26382ZM15.6642 31.0805C14.3778 31.0805 13.2668 31.8007 12.6529 32.8509C13.0329 32.8509 13.413 32.8809 13.7931 32.9109C14.2609 32.4008 14.9333 32.0707 15.6642 32.0707C16.6582 32.0707 17.5353 32.6409 17.9738 33.5111C18.3539 33.6011 18.7339 33.6611 19.114 33.7511C18.7047 32.1908 17.3014 31.0505 15.6642 31.0805ZM16.132 24.809C16.132 24.929 16.132 25.049 16.132 25.1391C16.132 25.3491 16.1027 25.5592 16.0735 25.7692C19.0555 25.8892 21.6283 27.5696 23.1193 30.0302C23.2655 29.6701 23.4117 29.3101 23.5579 28.92C21.8914 26.5194 19.2017 24.929 16.1612 24.779L16.132 24.809ZM15.8396 26.8795C15.7519 27.2096 15.6642 27.5396 15.5472 27.8697H15.6057C18.5293 27.8697 21.0144 29.7602 21.9499 32.4308C22.1546 32.0707 22.33 31.7106 22.5346 31.2905C21.3067 28.7099 18.7924 26.9395 15.8396 26.8495V26.8795ZM15.6349 28.98C15.4595 28.98 15.2841 28.98 15.1087 28.98C15.1087 29.04 15.0502 29.1 15.021 29.16C15.021 29.16 15.021 29.19 15.021 29.22C14.9625 29.3401 14.904 29.4601 14.8456 29.5801C14.8163 29.6401 14.7871 29.7002 14.7286 29.7602C14.7286 29.7902 14.6702 29.8502 14.6702 29.8802C14.6409 29.9402 14.5824 30.0002 14.5532 30.0902C14.904 30.0002 15.2841 29.9402 15.6642 29.9402C18.0031 29.9402 19.9619 31.7106 20.2835 34.0512C20.4881 34.1112 20.6928 34.1712 20.8974 34.2312C21.0144 34.0812 21.1021 33.9312 21.219 33.7511C20.7805 31.0205 18.4416 28.95 15.6934 28.98H15.6349ZM4.81764 29.8202C4.84688 29.8802 4.87611 29.9402 4.90535 30.0002C5.08076 30.0002 5.25618 30.0002 5.4316 30.0002C8.50137 30.0002 11.0157 27.3896 10.9864 24.2388C10.9864 24.0588 10.9864 23.8788 10.9864 23.6987C10.928 23.6987 10.8695 23.6387 10.8402 23.6087C10.8402 23.6087 10.7818 23.6087 10.7818 23.5787C10.6648 23.5187 10.5479 23.4587 10.4309 23.3986C10.3725 23.3686 10.2848 23.3086 10.2263 23.2786C10.2263 23.2786 10.1678 23.2486 10.1386 23.2186C10.0801 23.1886 9.9924 23.1286 9.93393 23.0986C10.0216 23.4587 10.0801 23.8488 10.0801 24.2388C10.0801 26.8495 8.0336 29.01 5.46083 29.01C5.08077 29.01 4.7007 28.95 4.34987 28.89C4.3791 28.95 4.43757 29.01 4.46681 29.1C4.46681 29.13 4.52528 29.19 4.52528 29.22C4.55452 29.2801 4.58375 29.3401 4.64223 29.4001C4.7007 29.5201 4.75917 29.6401 4.81764 29.7602C4.81764 29.7602 4.81764 29.7902 4.84688 29.8202H4.81764ZM5.4316 31.1405H5.37312C5.49007 31.4706 5.57778 31.8007 5.66548 32.1307C9.70004 31.9807 12.9452 28.6199 13.0329 24.4789C12.7113 24.3889 12.3898 24.2989 12.0682 24.1788V24.2388C12.0682 28.0198 9.11532 31.1105 5.4316 31.1405ZM12.0097 13.7663C12.0097 11.7559 13.5884 10.1055 15.5472 10.1055C17.506 10.1055 19.114 11.7258 19.114 13.7363C19.114 15.7468 17.5353 17.3972 15.5765 17.3972C13.6177 17.3972 12.0097 15.7768 12.0097 13.7663ZM12.9745 13.7363C12.9745 15.2067 14.1439 16.377 15.5765 16.377C17.009 16.377 18.1492 15.1767 18.1492 13.7063C18.1492 12.236 16.9798 11.0657 15.5472 11.0657C14.1147 11.0657 12.9745 12.266 12.9745 13.7363ZM16.1904 19.2877C16.1904 19.2877 16.1904 19.2276 16.2197 19.2276C16.2781 19.1076 16.3366 18.9876 16.3951 18.8676C16.4243 18.8075 16.4828 18.7175 16.512 18.6575C16.512 18.6275 16.5413 18.5975 16.5705 18.5675C16.5997 18.5075 16.6582 18.4174 16.6874 18.3574C16.3366 18.4475 15.9565 18.5075 15.5765 18.5075C13.0329 18.5075 10.928 16.407 10.928 13.7663C10.928 13.3762 10.9864 12.9861 11.0741 12.6261C11.0157 12.6561 10.9572 12.7161 10.8695 12.7461C10.8402 12.7461 10.7818 12.8061 10.7525 12.8061C10.6941 12.8361 10.6356 12.8661 10.5771 12.9261C10.4602 12.9861 10.3432 13.0462 10.2263 13.1362C10.2263 13.1362 10.1971 13.1362 10.1678 13.1362C10.1093 13.1362 10.0509 13.1962 9.9924 13.2262C9.9924 13.4062 9.9924 13.5863 9.9924 13.7663C9.9924 16.9171 12.5359 19.4977 15.6057 19.4677C15.7811 19.4677 15.9565 19.4677 16.132 19.4677C16.132 19.4077 16.1904 19.3477 16.2197 19.3177L16.1904 19.2877ZM4.78841 33.331C4.52528 31.5306 3.79438 29.9102 2.71265 28.5599C2.44953 28.7699 2.18641 28.95 1.92328 29.13C2.88807 30.3303 3.5605 31.8007 3.82362 33.421C4.14521 33.421 4.43757 33.361 4.78841 33.331ZM12.0682 6.86468C9.93393 8.36504 8.0336 9.65535 7.74124 10.5556C7.74124 10.6156 7.74124 10.6456 7.712 10.7056C9.61234 10.0454 11.1911 8.63511 12.0682 6.83468V6.86468ZM2.71265 33.421C2.47877 32.1007 1.92328 30.9004 1.13391 29.9102C0.870789 30.2103 0.695374 30.5103 0.607666 30.8104C1.10468 31.5006 1.48474 32.3108 1.6894 33.181C1.98176 33.331 2.33259 33.391 2.71265 33.421ZM15.3718 21.5682C15.4595 21.2381 15.5472 20.908 15.6642 20.578H15.6057C11.922 20.578 8.91067 17.5472 8.88144 13.7663V13.7063C8.55984 13.8264 8.23825 13.9164 7.91665 14.0064C7.91665 14.5165 8.00436 14.9966 8.09207 15.4467C8.15054 15.7168 8.23825 15.9869 8.29672 16.2269C9.29074 19.2577 12.0682 21.4782 15.3426 21.5382L15.3718 21.5682ZM15.518 8.96519C18.0615 8.96519 20.1665 11.0657 20.1665 13.7063C20.1665 14.0964 20.108 14.4865 20.0496 14.8466C20.108 14.7866 20.1957 14.7566 20.2542 14.6966C20.2542 14.6966 20.3127 14.6666 20.3419 14.6365C20.4004 14.6065 20.4881 14.5465 20.5466 14.5165C20.6635 14.4565 20.7805 14.3965 20.8974 14.3365C20.8974 14.3365 20.9559 14.3365 20.9559 14.3065L21.1021 14.2164C21.1021 14.0364 21.1021 13.8564 21.1021 13.6763C21.1021 10.5256 18.5585 7.94494 15.4888 7.97495C15.3133 7.97495 15.1379 7.97495 14.9625 8.00496C14.9625 8.06497 14.904 8.12499 14.8748 8.185C14.8748 8.185 14.8748 8.21501 14.8748 8.24501C14.8163 8.36504 14.7579 8.48507 14.6994 8.6051C14.6702 8.66512 14.6409 8.72513 14.5824 8.78514C14.5824 8.81515 14.524 8.87517 14.524 8.90517C14.4947 8.96519 14.4363 9.05521 14.407 9.11522C14.7579 9.0252 15.1379 8.96519 15.518 8.96519ZM14.8163 4.88421C14.4363 5.15427 14.027 5.45435 13.6469 5.72441C12.7991 8.72513 10.4894 11.1257 7.50735 11.9059C7.50735 12.236 7.50735 12.566 7.56582 12.8961C11.308 11.9659 14.1731 8.78514 14.8163 4.8542V4.88421ZM15.1087 23.3086C15.1087 23.0986 15.1379 22.8885 15.1672 22.6485C12.7698 22.5284 10.6356 21.4482 9.11532 19.7378C9.1738 20.2179 9.20303 20.698 9.20303 21.1781C10.811 22.6185 12.8283 23.5187 15.0795 23.6087C15.0795 23.4887 15.0795 23.3686 15.0795 23.2786L15.1087 23.3086ZM8.93991 24.2689C8.93991 23.9388 8.88144 23.6387 8.82297 23.3386C8.61831 23.8187 8.32595 24.2689 7.94589 24.689C7.77047 25.9493 6.68874 26.9395 5.40236 26.9395C5.34389 26.9395 5.25618 26.9395 5.19771 26.9395C4.81764 27.1796 4.43757 27.4496 4.05751 27.6897C4.46681 27.8697 4.93459 27.9597 5.40236 27.9597C7.36117 27.9597 8.93991 26.3093 8.93991 24.2989V24.2689ZM15.518 6.86468C19.2017 6.86468 22.213 9.89541 22.2423 13.6763V13.7363C22.5639 13.6163 22.8855 13.5263 23.207 13.4363C23.0609 9.29527 19.7864 5.96447 15.7519 5.87445C15.6642 6.20453 15.5765 6.5346 15.4595 6.86468H15.518Z" fill="#DD2026"/>
<path d="M43.5551 34.9513L41.5086 34.2611C41.0408 34.4712 40.5438 34.6812 40.0176 34.9513C41.6256 35.0713 43.7305 35.8815 44.6953 36.2716C44.3153 35.8515 43.9352 35.4014 43.5551 34.9513Z" fill="#C76E28"/>
<path d="M51.1857 44.9437C50.9226 43.5933 50.4255 42.273 49.8993 41.1027L49.7824 40.8627C49.2561 40.4726 48.7299 40.0825 48.2036 39.6324C48.2621 39.7224 48.2913 39.8124 48.3498 39.8724C49.3438 41.7329 50.0455 43.5633 50.3378 45.0937C50.601 46.384 50.5425 47.5243 50.3378 49.1147C50.6302 49.1147 50.9226 49.1147 51.2149 49.1447C51.4196 47.6143 51.478 46.324 51.2149 44.9137L51.1857 44.9437Z" fill="#C76E28"/>
<path d="M34.6673 55.4762L34.9304 55.2361C36.0414 54.1258 36.9185 52.6555 37.4155 51.0951C37.5909 50.555 37.7079 49.9848 37.3278 49.6548C36.9185 49.2947 36.3338 49.6548 35.7198 50.0149L35.5152 50.1349C34.872 50.525 33.761 51.7853 32.5039 53.2556C32.27 53.5257 32.0653 53.7658 31.8899 53.9758C30.8959 55.1161 30.662 55.7162 30.2819 56.7965C30.1942 57.0365 30.3112 57.2766 30.545 57.3666C30.7789 57.4566 31.0128 57.3366 31.1005 57.0966C31.4514 56.0763 31.6268 55.5962 32.5331 54.5759C32.7085 54.3659 32.9132 54.1258 33.147 53.8558C34.0241 52.8355 35.369 51.2752 35.9245 50.9151L36.1583 50.795C36.3045 50.705 36.5092 50.585 36.6554 50.525C36.6554 50.615 36.5969 50.705 36.5677 50.8251C36.1291 52.2654 35.3105 53.5857 34.3165 54.5759L34.0534 54.816C32.9716 55.8363 31.0128 57.7567 29.7849 61.1475C30.1065 61.1475 30.4281 61.1475 30.7205 61.1475C31.8607 58.1468 33.6441 56.4064 34.6381 55.4462L34.6673 55.4762Z" fill="#2B2A66"/>
<path d="M36.4215 56.3764C36.977 55.7163 37.5617 55.0261 38.1756 54.1559C40.1344 51.2752 39.8128 49.2947 39.2281 48.1544C38.7896 47.2842 38.1756 47.0142 37.7663 46.9542C37.0647 46.8341 36.3045 47.1342 35.6613 47.7643C35.2813 48.1244 34.7843 48.5445 34.1411 49.0847C33.3225 49.7748 32.2992 50.645 31.159 51.7253C29.1125 53.6458 28.8786 55.1161 28.6155 56.9465L28.557 57.2466C28.3231 58.807 28.1185 59.7672 27.6215 61.1175C27.9138 61.1175 28.2354 61.1175 28.557 61.1175C28.9956 59.8572 29.2002 58.867 29.4049 57.3666L29.4633 57.0666C29.7264 55.3262 29.9311 54.0959 31.7437 52.3554C32.8839 51.2752 33.9072 50.435 34.6966 49.7448C35.3397 49.2047 35.866 48.7546 36.2461 48.3645C36.6846 47.9444 37.2108 47.7043 37.6202 47.7944C37.9417 47.8544 38.2341 48.0944 38.468 48.5145C39.1404 49.8649 38.7896 51.6053 37.474 53.5857C36.8893 54.4259 36.3338 55.1161 35.7783 55.7463C34.872 56.7965 34.0241 57.7867 33.3225 59.3771C33.0301 60.0073 32.7962 60.6074 32.5623 61.1476C32.8839 61.1476 33.2055 61.1476 33.4979 61.1476C33.6733 60.6974 33.878 60.2173 34.1118 59.7372C34.7843 58.2669 35.5444 57.3666 36.4215 56.3164V56.3764Z" fill="#DD2026"/>
<path d="M38.4972 55.3562C38.2633 55.2961 38.0294 55.4162 37.9417 55.6562C37.5909 56.9165 36.2753 59.2871 35.2228 61.2676C35.5736 61.2676 35.8952 61.2676 36.2168 61.2676C37.2693 59.3471 38.4387 57.1266 38.7896 55.8663C38.848 55.6262 38.7311 55.3862 38.4972 55.2961V55.3562Z" fill="#C76E28"/>
<path d="M41.5378 50.345C41.8594 48.5145 42.0056 46.8041 40.3099 45.5738C38.8773 44.5536 37.1231 44.6136 35.4567 45.7239C34.2288 46.5341 33.0886 47.4043 31.7145 48.6045C30.3989 49.7148 30.0188 50.0749 28.557 51.8153C27.2122 53.4357 26.9783 55.1161 26.7152 57.0366L26.6274 57.6367C26.3936 59.3771 26.1304 59.9773 25.575 61.1476H26.5397C26.9783 60.1873 27.2414 59.4071 27.4753 57.7567L27.563 57.1266C27.7969 55.2661 28.0015 53.7958 29.2002 52.3554C30.6035 50.675 30.9836 50.315 32.2407 49.2647C33.6148 48.0944 34.6966 47.2542 35.9245 46.444C36.7138 45.9039 38.2633 45.2137 39.8129 46.294C41.0115 47.1342 41.0408 48.2145 40.6899 50.1649C40.3391 52.0854 40.1929 52.8956 39.9883 54.696C39.7836 56.4064 39.1112 58.3569 38.1172 61.2676C38.4972 61.2676 38.8188 61.2076 39.082 61.1175C40.0175 58.4169 40.6315 56.5264 40.8361 54.816C41.07 53.0156 41.1869 52.2354 41.5378 50.315V50.345Z" fill="#F1A41E"/>
<path d="M43.7013 49.8348C44.1398 47.1642 43.789 45.3638 42.5903 44.1335C41.4501 42.9932 40.573 42.9932 38.6142 43.1432C38.2049 43.1432 37.8833 43.1732 37.591 43.2032C36.5092 43.2632 36.0999 43.2632 34.6674 43.8934C32.9425 44.6436 32.27 44.9737 30.6621 46.324C30.3697 46.564 30.1066 46.8041 29.8727 46.9841C29.4926 47.3142 28.791 47.9144 28.7617 47.9444C28.4401 48.7246 28.1478 49.4747 27.8846 50.1949C28.674 49.2647 29.6096 48.3645 30.4282 47.6743C30.6621 47.4643 30.9544 47.2542 31.2468 46.9841C32.767 45.6938 33.4102 45.3938 35.0182 44.6736C36.2754 44.1034 36.597 44.1034 37.6202 44.0434C37.9126 44.0434 38.2342 44.0434 38.6727 43.9834C40.6608 43.8634 41.1578 43.8934 41.9764 44.7036C42.6488 45.3938 43.3505 46.564 42.8534 49.5948C42.7073 50.435 42.5319 51.3652 42.3564 52.3254C41.9764 54.3359 41.5671 56.5864 41.3039 58.747C41.8302 57.6967 42.2687 56.4664 42.7073 55.2361C42.8827 54.3059 43.0289 53.3757 43.2043 52.5055C43.3797 51.5452 43.5551 50.615 43.7013 49.7448V49.8348Z" fill="#126491"/>
<path d="M45.5431 46.114C45.3384 43.1132 44.052 42.063 42.9996 41.7329C41.6255 41.2828 40.5437 40.9227 38.9065 41.0427C37.3278 41.1628 34.755 41.5829 33.0886 42.123C32.65 42.273 31.9484 42.6031 31.4514 42.8432C31.1298 43.3533 30.8374 43.8634 30.545 44.3435C31.4514 43.8034 32.4454 43.2633 33.3517 42.9632C35.0474 42.3931 37.6494 42.033 38.965 41.943C40.2514 41.8529 41.2454 42.123 42.7364 42.6031C43.8766 42.9632 44.5491 44.1935 44.666 46.174C44.7829 47.8544 44.6075 49.7448 44.169 52.0254C44.4906 51.4852 44.8707 50.9751 45.3092 50.555C45.5431 48.9046 45.6308 47.4643 45.5431 46.114Z" fill="#18152C"/>
<path d="M46.9172 43.4133C46.3617 41.4629 44.9876 40.5326 43.555 39.8125C41.9763 39.0023 40.1052 39.2723 37.7663 39.6024L37.357 39.6624C36.5092 39.7825 35.8367 39.8425 35.252 39.9025C34.6673 39.9625 34.0826 39.9925 33.4394 40.1125C33.147 40.4726 32.8547 40.8327 32.5916 41.1928C33.7025 40.9227 34.4627 40.8627 35.3397 40.8027C35.9245 40.7427 36.5969 40.6827 37.474 40.5626L37.8833 40.5026C40.076 40.1725 41.8301 39.9325 43.175 40.6227C44.6075 41.3728 45.66 42.153 46.0693 43.6834C46.4786 45.0937 46.654 47.2242 46.5956 49.6848C46.8587 49.5648 47.1803 49.4748 47.4726 49.3848C47.5019 46.9542 47.2972 44.8837 46.9172 43.4433V43.4133Z" fill="#DD2026"/>
<path d="M41.5962 38.6422C41.8301 38.6722 42.064 38.5221 42.1225 38.2821C42.1809 38.042 42.0055 37.802 41.7716 37.772C41.3623 37.6819 40.2514 37.5019 39.1989 37.5019C38.5849 37.5019 37.2985 37.5919 35.6906 37.862C35.2813 38.2221 34.9012 38.5822 34.5211 38.9722C36.7723 38.5521 38.4387 38.4021 39.1989 38.4321C40.2221 38.4321 41.3331 38.6422 41.6255 38.7022L41.5962 38.6422Z" fill="#DC8526"/>
<path d="M49.1976 44.4636C48.9053 42.5131 48.0574 41.3428 47.3265 40.3226C47.1511 40.0525 46.9464 39.8124 46.8003 39.5424C45.8647 38.072 43.1458 36.5717 41.9471 36.1216L38.4096 35.9115C37.9125 36.2416 37.3863 36.5717 36.8308 36.9618L37.3278 36.9017C39.1405 36.7517 40.7192 36.6017 41.6255 36.9618C42.7949 37.4119 45.2508 38.8222 46.0401 40.0525C46.2155 40.3226 46.391 40.5926 46.5956 40.8627C47.2973 41.8529 48.0574 42.9032 48.3205 44.6136C48.5544 46.0839 48.5544 47.7343 48.496 49.2347C48.7883 49.2047 49.0807 49.1747 49.373 49.1747C49.4315 47.6443 49.4315 45.9939 49.1976 44.4936V44.4636Z" fill="#407044"/>
<path d="M56.8574 45.5138V45.3337C56.4774 45.0337 56.0973 44.7636 55.6295 44.4935L55.688 44.6736C56.0973 45.9639 56.4481 47.4342 56.1558 49.2047C56.5358 49.1146 56.8574 48.9946 57.0913 48.7846C57.2083 47.6143 57.0913 46.534 56.8574 45.5138Z" fill="#18152C"/>
<path d="M53.2029 45.5738C52.9105 43.8934 52.7351 43.3533 52.5597 42.9032L52.5012 42.7531C52.1796 42.5431 51.8288 42.333 51.5072 42.123C51.3903 42.033 51.2733 41.973 51.1564 41.8829L51.2148 42.063C51.361 42.4831 51.478 42.7531 51.5949 42.9632C51.8288 43.4733 51.9457 43.7734 52.3258 45.7239C52.5305 46.8341 52.472 48.0944 52.3258 49.2347C52.6182 49.2347 52.9105 49.2647 53.2029 49.2947C53.3491 48.0944 53.4075 46.7441 53.2029 45.5738Z" fill="#126491"/>
<path d="M54.7232 44.1335V43.9834C54.3431 43.8034 53.9631 43.5934 53.583 43.3833L53.6415 43.5333V43.6834C54.1677 45.3938 54.5186 46.6241 54.4308 48.0344C54.4016 48.5145 54.3431 48.9646 54.3139 49.3847C54.6355 49.3847 54.9279 49.3847 55.191 49.3847C55.2202 48.9946 55.2787 48.5745 55.3079 48.1244C55.4249 46.7741 55.1325 45.5738 54.7524 44.1635L54.7232 44.1335Z" fill="#2B2A66"/>
<path d="M53.4076 10.4654C54.3432 9.86529 55.2495 9.74526 56.1558 10.6155C56.2143 10.6755 56.2728 10.7355 56.302 10.7955C56.302 10.7955 56.302 10.7955 56.3312 10.8555C56.6236 11.2456 56.7113 11.7557 56.6528 12.3559C55.5419 11.7257 54.4309 11.0956 53.4076 10.5254V10.4654ZM55.8635 15.2066C54.4601 13.9163 53.0568 12.776 51.7704 11.7557C51.3904 12.1158 51.0103 12.5059 50.6302 12.896C52.1505 14.0363 53.8754 15.1466 55.5126 16.1968C55.6296 15.8667 55.7758 15.5667 55.8927 15.2366L55.8635 15.2066ZM49.6947 33.2409C49.6947 33.2109 49.6654 33.1509 49.6362 33.1209C48.6714 31.2304 46.508 27.7796 45.7771 26.0092C45.1923 24.6588 44.8123 23.7286 44.783 23.6986C44.9585 26.5793 45.7478 29.3099 46.9757 31.8606C47.0342 32.0406 47.1219 32.1906 47.1804 32.3407C48.1452 34.2611 49.607 36.9018 50.2794 38.7322C50.6887 39.8725 50.9811 40.9527 51.1565 41.913C51.2442 41.973 51.3611 42.033 51.4488 42.123C51.4781 42.123 51.5365 42.183 51.5658 42.183C52.092 39.2423 51.1857 36.1516 49.6654 33.2409H49.6947ZM43.9937 23.9087C43.7305 22.0782 43.5551 20.1878 43.409 18.3273C43.2335 18.4173 43.0874 18.5074 42.9119 18.5974C42.9119 19.9477 42.9412 21.358 42.9119 22.6784C42.7365 26.8194 43.2335 31.4405 44.403 35.9115C44.6369 36.1816 44.8708 36.4517 45.1339 36.6917C45.1339 35.7915 45.0754 34.8913 45.0169 33.9911C46.2156 36.1816 47.3266 37.982 48.2329 39.6024C48.7884 40.0825 49.3438 40.5026 49.8993 40.9227C49.2854 38.0721 47.3266 34.9213 44.8707 31.5905C44.6661 28.7398 44.3445 26.0392 44.0229 23.8486L43.9937 23.9087ZM55.3665 44.3436C56.4189 44.1635 57.6176 44.0135 58.9332 43.9235C59.1087 43.4133 59.2841 42.8432 59.4595 42.3031C57.5007 42.5731 55.688 42.9932 54.2555 43.7434C54.6356 43.9535 55.0156 44.1635 55.3957 44.3736L55.3665 44.3436ZM57.793 47.2542C57.793 47.3443 57.793 47.4043 57.793 47.4943C57.9392 46.9842 58.2023 46.234 58.4947 45.3338C57.91 45.3338 57.3545 45.3338 56.8283 45.3638C57.4714 45.9339 57.8515 46.5341 57.8223 47.2542H57.793ZM61.3598 30.1502C61.1552 29.9101 60.9213 29.67 60.6582 29.43C60.5704 29.58 60.4243 29.7901 60.3658 29.9101C59.4595 31.5005 58.4362 33.1209 57.413 34.6212C55.6003 37.2619 53.9339 39.9325 52.3259 42.6632C52.5013 42.7532 52.6767 42.8732 52.8522 42.9632C53.5246 41.7029 54.2262 40.4426 54.9571 39.2123C56.799 36.0616 59.0209 32.9708 61.3598 30.1802V30.1502ZM53.2322 43.1733C53.2907 43.2033 53.3492 43.2333 53.4076 43.2633C54.9571 42.3331 57.2083 41.7029 59.8395 41.1328C60.015 40.5626 60.2196 39.9625 60.395 39.4224C57.5007 40.1125 54.9279 41.2828 53.2322 43.2033V43.1733ZM40.9531 19.5876C40.3684 19.8577 39.7545 20.1278 39.1113 20.3978C38.8481 20.7579 38.5266 21.268 38.2634 21.6281C38.2927 22.3183 38.3804 23.0685 38.5265 23.9087C39.4036 22.7084 40.2222 21.268 40.9239 19.6476V19.5876H40.9531ZM53.1153 27.8696C54.4017 33.3609 54.4309 35.8215 54.4309 38.042C55.9512 33.1809 55.3664 27.3295 52.5306 22.3783C53.3492 23.0084 54.2555 23.6086 55.0741 24.1487C54.811 23.7286 54.5771 23.2785 54.4017 22.8284C52.3844 20.6379 49.8409 17.9972 47.7066 15.4166C47.3266 15.7167 46.9173 16.0168 46.508 16.3168C47.8528 18.2073 49.607 19.9777 51.4488 21.5081C51.9166 23.1885 52.3259 24.6888 52.6475 26.0092C52.3259 25.5891 52.092 25.319 52.092 25.319C49.3146 21.6881 47.3558 19.1975 45.894 16.7369C45.6016 16.947 45.3093 17.127 45.0169 17.3371C46.888 21.8382 50.2502 25.7691 53.086 27.8696H53.1153ZM48.496 28.7098C50.2209 31.4405 51.1565 32.8508 52.0043 35.1614C52.6183 36.9918 53.0276 38.7322 53.086 40.2626C54.2263 36.2116 52.8814 32.0106 50.6887 28.2297C50.6887 28.2297 50.6887 28.1997 50.6595 28.1697C50.6595 28.1697 50.6595 28.1697 50.6595 28.1397C50.601 28.0496 50.5425 27.9596 50.484 27.8396C48.993 25.349 46.6249 22.3483 45.8063 20.7579C45.2216 19.6476 44.6953 18.5974 44.3153 17.7872C44.1983 17.8472 44.0814 17.9372 43.9644 17.9972C44.5784 21.9282 46.4495 25.7091 48.5252 28.6798L48.496 28.7098ZM38.9066 25.8591C39.0528 26.4893 39.2282 27.1194 39.4621 27.8096C39.4621 27.8696 39.4913 27.8996 39.5206 27.9596C41.0701 25.199 41.801 22.6183 42.2688 20.3078C40.9824 22.1082 39.9883 23.6386 38.9359 25.8591H38.9066ZM42.2103 23.9387C42.2103 23.9987 41.304 26.7593 40.3099 29.9401C40.5438 30.4502 40.807 30.9603 41.0993 31.4405C41.8887 29.0399 42.298 26.5193 42.2103 23.9387ZM57.4422 26.6993C56.916 26.2492 56.3897 25.7691 55.9512 25.289C56.0389 27.5095 56.1266 30.6903 56.302 35.1914C57.3253 32.1306 57.5884 29.1899 57.4422 26.7293V26.6993ZM54.6063 18.6574C52.9399 16.977 51.2442 15.3566 49.6947 13.7962C49.3731 14.0963 49.0515 14.3664 48.7007 14.6364C48.613 14.6964 48.5545 14.7565 48.4668 14.8165C50.2502 16.6169 52.3259 18.2373 54.3432 19.6176C54.4017 19.2875 54.5186 18.9575 54.6063 18.6274V18.6574ZM58.5824 31.5005C58.9332 30.5703 59.3133 29.52 59.5764 28.4397C59.2256 28.1397 58.8748 27.8696 58.5239 27.5695C58.4655 28.8598 58.5239 30.1201 58.5824 31.5005ZM54.2262 41.2228C55.688 40.1425 58.0854 39.2123 60.7459 38.3721C60.9505 37.742 61.1844 37.1418 61.3891 36.5717C58.4947 37.5019 55.9219 38.9723 54.2262 41.2228ZM55.6588 38.9723C57.6469 37.3819 59.518 36.3016 61.7984 35.2814C62.003 34.6212 62.2077 34.0211 62.3246 33.4809C59.7518 34.8013 57.3545 36.6317 55.6588 38.9423V38.9723ZM57.9685 35.4614C58.8163 34.8313 60.4827 33.841 62.4708 32.7008C62.4708 32.4007 62.4708 32.1606 62.4415 31.9506C62.3831 31.7405 62.2661 31.5005 62.1784 31.2904C60.5997 32.4307 59.1379 33.841 57.9977 35.4314L57.9685 35.4614Z" fill="#0E4022"/>
<path d="M51.0102 7.55472C51.0102 7.31467 51.0687 7.10462 51.1856 6.89457C51.8873 7.43469 52.589 7.94482 53.2029 8.39492C52.969 8.66499 52.6474 8.84503 52.2674 8.84503C51.5657 8.84503 51.0102 8.2749 51.0102 7.55472ZM27.4753 7.70476H30.4574L31.8022 9.08509H35.1059L35.7198 9.71524C35.6614 9.89528 35.6029 10.0453 35.6029 10.2554C35.6029 10.9755 36.1584 11.5457 36.86 11.5457C37.5617 11.5457 38.1172 10.9755 38.1172 10.2554C38.1172 9.5352 37.5617 8.96506 36.86 8.96506C36.1584 8.96506 36.5092 8.99507 36.3338 9.08509L35.4859 8.21488H32.1823L30.8374 6.83455H27.8554L26.0135 4.9441H21.9205L21.0142 5.87432C21.1603 6.14439 21.2773 6.44446 21.4235 6.74453L22.3005 5.84431H25.6627L27.5045 7.73477L27.4753 7.70476ZM31.3637 15.5967C31.1883 15.5967 31.0128 15.6567 30.8374 15.7167L28.9371 13.7662H26.9198L26.2474 14.4564H23.967C24.0255 14.7564 24.0839 15.0565 24.1424 15.3566H26.5982L27.2707 14.6664H28.557L30.1942 16.3468C30.1358 16.4969 30.0773 16.7069 30.0773 16.887C30.0773 17.6071 30.6328 18.1773 31.3344 18.1773C32.0361 18.1773 32.5916 17.6071 32.5916 16.887C32.5916 16.1668 32.0361 15.5967 31.3344 15.5967H31.3637ZM45.3092 12.986V2.33347C44.9876 2.09341 44.6953 1.88336 44.4321 1.70332V13.046C43.9936 13.2561 43.672 13.7062 43.672 14.2463C43.672 14.7865 44.2275 15.5366 44.9292 15.5366C45.6308 15.5366 46.1863 14.9665 46.1863 14.2463C46.1863 13.5262 45.8062 13.1961 45.3092 13.016V12.986ZM28.674 17.9372C28.674 17.217 28.1185 16.6469 27.4168 16.6469C26.7152 16.6469 26.1597 17.217 26.1597 17.9372C26.1597 18.6574 26.7152 19.2275 27.4168 19.2275C28.1185 19.2275 27.7384 19.1975 27.8846 19.1375L28.9956 20.2778V21.8682C29.2879 21.8682 29.5803 21.9282 29.8726 21.9282V19.8877L28.5278 18.5374C28.6155 18.3573 28.674 18.1473 28.674 17.9372ZM39.6959 15.3266C39.1404 15.3266 38.7019 15.6867 38.5265 16.1668H36.4507L32.884 19.8277V21.9582C33.1763 21.9582 33.4687 21.8982 33.761 21.8682V20.2178L36.8308 17.067H38.5557C38.7311 17.5471 39.1989 17.9072 39.7252 17.9072C40.2514 17.9072 40.9823 17.3371 40.9823 16.6169C40.9823 15.8967 40.4268 15.3266 39.7252 15.3266H39.6959ZM24.2593 9.44518C24.961 9.44518 25.5165 8.87504 25.5165 8.15487C25.5165 7.43469 24.961 6.86456 24.2593 6.86456C23.5577 6.86456 23.0022 7.43469 23.0022 8.15487C23.0022 8.87504 23.0314 8.48495 23.0899 8.63498L22.476 9.23513C22.5929 9.5352 22.6806 9.83527 22.7976 10.1653L23.7039 9.32515C23.8793 9.41517 24.0839 9.47518 24.2886 9.47518L24.2593 9.44518ZM33.9072 14.9365C34.6089 14.9365 35.1644 14.3664 35.1644 13.6462C35.1644 12.926 34.6089 12.3559 33.9072 12.3559C33.2055 12.3559 33.4979 12.4159 33.2933 12.5059L30.662 9.80526H26.2182L24.4055 11.6657H23.2653C23.353 11.9658 23.4407 12.2659 23.5284 12.5659H24.7856L26.5982 10.7055H30.3112L32.7085 13.1661C32.6501 13.3161 32.6208 13.4661 32.6208 13.6162C32.6208 14.3363 33.1763 14.9065 33.878 14.9065L33.9072 14.9365ZM41.1577 4.16391V1.16319C40.8361 1.28322 40.5438 1.40325 40.2222 1.55329L40.2806 3.2637H38.6434L38.1757 2.78358C37.9418 2.96362 37.6786 3.11366 37.4155 3.2937L38.2634 4.16391H41.1285H41.1577ZM38.7896 7.28466C38.965 7.76477 39.4328 8.12486 39.959 8.12486C40.4853 8.12486 41.2162 7.55472 41.2162 6.83455C41.2162 6.11438 40.6607 5.54424 39.959 5.54424C39.2574 5.54424 38.965 5.90433 38.7896 6.38444H37.0939L35.3982 4.64403C35.1351 4.79406 34.872 4.9441 34.5796 5.09413L36.7431 7.31467H38.8188L38.7896 7.28466ZM42.4149 0.893127V9.23513L40.2222 11.4857C39.7544 11.2756 39.1989 11.3356 38.8188 11.7557C38.3218 12.2659 38.3218 13.076 38.8188 13.5862C39.3159 14.0963 40.1052 14.0963 40.6022 13.5862C40.9823 13.1961 41.07 12.6259 40.8361 12.1458L43.2627 9.65523V1.04316C43.0288 0.953142 42.7949 0.893127 42.6195 0.893127C42.4441 0.893127 42.4733 0.893127 42.3856 0.893127H42.4149ZM22.1836 3.95386C22.7098 3.95386 23.1776 3.59377 23.353 3.11366H26.3351C25.9843 2.81359 25.6334 2.51352 25.2826 2.21344H23.3823C23.2069 1.73333 22.7391 1.37324 22.2128 1.37324C21.6866 1.37324 20.9557 1.94338 20.9557 2.66355C20.9557 3.38372 21.5112 3.95386 22.2128 3.95386H22.1836ZM47.385 3.92385C47.0926 3.6838 46.8003 3.44374 46.5079 3.23369V10.9155L49.49 13.9763C49.7239 13.7662 49.9285 13.5862 50.1332 13.3761L47.385 10.5554V3.92385ZM49.373 5.48423C49.1684 5.33419 48.9637 5.18416 48.7591 5.03412C48.6714 4.97411 48.5837 4.88408 48.4959 4.82407V8.54496L51.7996 11.7257C52.0335 11.5157 52.2674 11.3056 52.472 11.1256L49.373 8.15487V5.48423Z" fill="#60BAD0"/>
<path d="M26.8909 39.6625H29.7852C29.5221 39.3924 29.2298 39.1224 28.9374 38.8523H26.8909V37.1419C26.6862 36.9918 26.4816 36.8418 26.2769 36.6918V38.8223H25.7215L24.5228 37.592V35.6415C24.2889 35.5215 24.0258 35.4015 23.7626 35.2814V37.592L22.564 38.8223H22.0377V34.5913C21.8331 34.5313 21.6284 34.4412 21.3945 34.3812V38.8523H17.9739V33.511C17.7693 33.451 17.5354 33.421 17.3307 33.391V38.8823H16.7753L15.5766 37.652V33.1209C15.3135 33.0909 15.0796 33.0609 14.8164 33.0309V37.652L13.6178 38.8823H13.0915V32.8809C12.8869 32.8809 12.653 32.8809 12.4483 32.8809V38.9123H9.05697V32.8809C9.02773 32.8809 8.99849 32.8809 8.94002 32.8809C8.88155 32.8809 8.79384 32.8809 8.73537 32.8809C8.61843 32.8809 8.53072 32.8809 8.44301 32.8809V38.8823H7.88753L6.68886 37.652V33.0909C6.42573 33.1209 6.19184 33.1509 5.92872 33.2109V37.652L4.73005 38.8823H4.2038V33.421C3.99915 33.421 3.76526 33.451 3.56061 33.451V38.8823H2.82971C2.91742 39.1524 3.00513 39.4224 3.0636 39.6925H3.56061V41.3729C3.7945 42.1231 3.99915 42.8733 4.2038 43.5934V39.6925H4.73005L5.92872 40.9228V45.994L5.2563 46.6842C5.46095 47.1343 5.69483 47.4944 5.92872 47.6744C6.3965 48.0045 6.92274 48.2445 7.50746 48.3946L7.85829 48.0345H8.41378V48.6046C8.61843 48.6346 8.82308 48.6646 9.05697 48.6946V48.0345H12.4483V48.9047C12.653 48.9047 12.8576 48.9047 13.0915 48.9347V48.0345H13.6178L14.6703 49.1148C14.9626 49.1748 15.2842 49.2348 15.5766 49.2948V49.2348L16.7753 48.0045H17.3307V50.015C17.4769 50.105 17.6523 50.195 17.7985 50.315C17.857 50.345 17.9155 50.4051 17.9447 50.4351V48.0045H21.3653V55.5363H20.3713C20.4297 55.8064 20.5175 56.0764 20.5759 56.3465H21.3945V59.1672C21.5699 59.6473 21.7746 60.0674 22.0377 60.3975V56.3765H22.564L23.7626 57.6068V61.2076C24.055 61.2076 24.2889 61.0876 24.5228 60.9676V57.6068L25.7215 56.3765H26.2769V56.7366C26.4523 55.6863 26.6278 54.5761 26.9201 53.5558V48.0345H28.7912C28.9082 47.7644 29.0251 47.4944 29.1421 47.2243H26.9201V39.6925L26.8909 39.6625ZM8.44301 47.2243H7.88753L6.68886 45.994V40.9228L7.88753 39.6925H8.44301V47.2243ZM12.4776 47.2243H9.0862V39.6925H12.4776V47.2243ZM14.8164 45.994L13.6178 47.2243H13.0915V39.6925H13.6178L14.8164 40.9228V45.994ZM17.36 47.2243H16.8045L15.6058 45.994V40.9228L16.8045 39.6925H17.36V47.2243ZM21.3945 47.2243H17.9739V39.6925H21.3945V47.2243ZM23.7334 54.336L22.5347 55.5663H22.0085V48.0345H22.5347L23.7334 49.2648V54.336ZM23.7334 45.994L22.5347 47.2243H22.0085V39.6925H22.5347L23.7334 40.9228V45.994ZM26.2769 55.5663H25.7215L24.5228 54.336V49.2648L25.7215 48.0345H26.2769V55.5663ZM26.2769 47.2243H25.7215L24.5228 45.994V40.9228L25.7215 39.6925H26.2769V47.2243ZM30.9254 40.8928V43.6834C30.6916 44.0435 30.4869 44.4336 30.2823 44.7937V40.1726C30.5161 40.4127 30.7208 40.6527 30.9254 40.8628V40.8928Z" fill="#BADBE6"/>
<path style="mix-blend-mode:multiply" d="M48.6422 14.6965C48.7007 14.6364 48.7591 14.6064 48.8176 14.5464C51.3904 12.4159 53.5538 9.08511 55.6003 10.1954C54.4017 9.29516 51.3904 7.04463 48.7299 5.00414C46.1279 2.99365 43.7598 0.863144 42.6196 0.863144C39.1113 0.863144 35.6322 5.87434 31.4515 5.87434C27.2707 5.87434 23.47 -1.11733 20.8973 0.383029C18.2368 1.9134 21.1019 5.42424 22.3591 8.93508C23.4408 11.9358 24.581 15.6867 24.7564 21.028C26.4229 21.5681 28.7033 22.0182 31.6853 22.0182C34.6674 22.0182 36.1292 21.5081 38.2634 20.7579C43.1166 18.9575 46.2448 16.6769 48.6714 14.6965H48.6422Z" fill="url(#paint0_linear_4003_8)"/>
<path style="mix-blend-mode:multiply" d="M22.3885 8.96516C22.3885 8.90514 22.33 8.81512 22.3008 8.75511C21.1314 5.57434 18.734 2.42359 20.3712 0.773193C19.1726 1.67341 16.1613 3.92395 13.4423 5.87442C10.7819 7.79488 8.06291 9.44527 7.71208 10.5555C6.63035 13.9764 10.1971 18.9275 8.91075 23.0085C7.71208 26.8794 -0.0354468 28.6499 0.549272 31.6506C1.13399 34.7113 5.28549 33.0009 8.91075 32.8809C12.0098 32.7609 15.8397 32.7909 20.8682 34.2612C21.8623 32.8209 23.0025 30.7204 23.9088 27.8097C24.5812 25.6792 24.8151 23.3086 24.7566 20.998C24.5812 15.6868 23.441 11.9659 22.3593 8.99516L22.3885 8.96516Z" fill="url(#paint1_linear_4003_8)"/>
<path style="mix-blend-mode:multiply" d="M8.96914 32.8509C8.91067 32.8509 8.82297 32.8509 8.76449 32.8509C5.46083 33.0309 1.80634 34.3812 0.783081 32.2507C1.25086 33.6911 2.39106 37.3219 3.38508 40.5927C4.34987 43.7735 5.05153 46.9543 5.95784 47.6444C8.79373 49.7749 14.4947 47.7945 17.8569 50.3151C21.0436 52.6856 20.3127 60.7876 23.2655 61.1477C26.2768 61.5077 25.9845 56.9466 26.9785 53.3758C27.8263 50.3151 29.025 46.5642 31.9486 42.1531C30.9253 40.7128 29.3174 38.9723 26.92 37.1719C25.1366 35.8516 23.0316 34.8914 20.8682 34.2312C15.8981 32.7609 12.0682 32.7308 8.99838 32.8509H8.96914Z" fill="url(#paint2_linear_4003_8)"/>
<path style="mix-blend-mode:multiply" d="M26.949 53.3157C26.949 53.3757 26.9198 53.4657 26.8906 53.5257C26.0427 56.7965 26.1597 60.7875 23.8793 61.1476C25.3703 61.1476 29.0833 61.1476 32.3869 61.2076C35.6321 61.2676 38.7896 61.5677 39.7252 60.8775C42.561 58.747 42.5026 52.5955 45.8647 50.0749C49.0514 47.7043 56.3604 50.9151 57.5883 48.1544C58.8747 45.3038 54.5478 44.1935 51.5072 42.123C48.9345 40.3526 45.8355 38.012 42.6195 33.781C40.9823 34.3511 38.8481 35.3714 36.4507 37.1418C34.6673 38.4621 33.1471 40.2326 31.8607 42.153C28.9663 46.5641 27.7677 50.285 26.9198 53.3157H26.949Z" fill="url(#paint3_linear_4003_8)"/>
<path style="mix-blend-mode:multiply" d="M51.478 42.093C51.5365 42.123 51.595 42.183 51.6534 42.213C54.4016 44.0735 58.173 45.1837 57.7637 47.5243C58.2315 46.084 59.3717 42.4231 60.4534 39.2123C61.5059 36.0616 62.7631 33.0608 62.4123 31.9506C61.3305 28.5297 55.6003 26.6693 54.3139 22.6183C53.086 18.7774 58.3192 12.6559 56.1558 10.5854C53.9046 8.45494 51.5365 12.3559 48.7006 14.6364C46.274 16.5869 43.1458 18.8974 38.2341 20.7279C38.2341 22.4983 38.5265 24.8989 39.462 27.7796C40.1345 29.9101 41.3039 31.9506 42.678 33.811C45.8647 37.982 48.9345 40.3226 51.478 42.093Z" fill="url(#paint4_linear_4003_8)"/>
<path d="M184.238 1.67328V59.4971" stroke="white" stroke-width="2" stroke-miterlimit="10"/>
<path d="M137.549 10.8255C129.947 10.8255 119.247 13.1661 107.64 17.5171C97.9632 21.148 88.3738 25.7691 78.0243 32.4907C84.0761 29.9401 96.0336 27.0894 105.886 27.0894C115.739 27.0894 128.69 32.3106 114.686 50.645C155.967 22.9184 154.827 10.8255 137.549 10.8255Z" fill="#F88011"/>
<path d="M325.916 7.01459H326.588C336.295 7.01459 346.001 7.01459 355.678 7.01459C359.829 7.01459 363.864 7.82478 367.606 9.77525C373.658 12.926 377.488 17.8772 379.125 24.6288C380.207 29.1599 380.148 33.691 378.745 38.162C377.108 43.3533 373.892 47.3142 369.36 50.1349C366.144 52.1454 362.665 53.3457 358.923 53.7358C357.666 53.8558 356.409 53.9458 355.181 53.9458C345.65 53.9458 336.148 53.9458 326.617 53.9458C317.087 53.9458 326.091 53.9458 325.857 53.9158C325.74 53.4957 325.799 7.97482 325.887 7.01459H325.916ZM337.522 16.5569V44.0435C337.698 44.0435 337.844 44.1035 337.99 44.1335C338.546 44.1335 339.072 44.1635 339.627 44.1635C344.978 44.1635 350.328 44.1635 355.649 44.1035C357.198 44.1035 358.719 43.8634 360.21 43.4133C364.039 42.243 366.612 39.6924 367.782 35.7915C368.746 32.6407 368.805 29.3999 368.103 26.1892C367.109 21.7181 364.478 18.7774 360.21 17.3971C358.309 16.7969 356.321 16.5569 354.333 16.5569C348.983 16.5569 343.603 16.5569 338.224 16.5569H337.493H337.522Z" fill="white"/>
<path d="M289.751 53.7958V16.9469H269.023C268.847 16.3768 268.847 7.61469 269.023 7.04456H322.583C322.758 7.52467 322.788 15.7166 322.583 16.8569C321.472 16.9469 320.332 16.8569 319.221 16.9169C318.081 16.9169 316.911 16.9169 315.771 16.9169H302.059C302.059 17.277 302.001 17.5771 302.001 17.8471C302.001 26.6393 302.001 35.4314 302.001 44.2235C302.001 47.2242 302.001 50.2549 302.001 53.2556C302.001 53.4657 302.001 53.6457 301.972 53.8258C301.387 53.9758 290.336 53.9758 289.809 53.8258L289.751 53.7958Z" fill="white"/>
<path d="M435.434 6.83455C427.043 14.3664 418.798 21.8081 410.437 29.3399C419.149 37.4419 427.832 45.5438 436.574 53.7058C436.34 53.7058 436.223 53.7358 436.077 53.7358C430.668 53.7358 425.26 53.7358 419.851 53.7358C419.471 53.7358 419.208 53.6158 418.945 53.3457C416.079 50.435 413.214 47.5243 410.349 44.6436C407.776 42.033 405.174 39.4224 402.602 36.8117C400.321 34.5312 398.07 32.2506 395.79 29.9401C395.644 29.7901 395.497 29.61 395.293 29.4C395.468 29.2199 395.644 29.0399 395.819 28.8598C400.906 24.0287 406.022 19.1675 411.109 14.3363C413.624 11.9358 416.138 9.5652 418.623 7.16463C418.915 6.89456 419.208 6.77454 419.588 6.77454C424.616 6.77454 429.674 6.77454 434.732 6.77454C434.907 6.77454 435.083 6.77454 435.404 6.80454L435.434 6.83455Z" fill="white"/>
<path d="M394.766 53.9458H382.838C382.692 53.3757 382.721 7.70471 382.838 7.04456H394.649C394.649 7.16458 394.708 7.34463 394.737 7.49466C394.737 7.67471 394.737 7.85475 394.737 8.0648V53.9458H394.766Z" fill="white"/>
<path d="M236.805 26.9994C240.021 23.6386 243.12 20.3978 246.248 17.127C249.493 20.4278 252.651 23.6686 255.896 26.9694C255.954 26.7593 256.013 26.6693 256.013 26.5493C256.013 26.3392 256.013 26.1292 256.013 25.9191V7.4647C256.042 7.4647 256.071 7.43469 256.13 7.43469C261.568 17.127 267.005 26.7893 272.443 36.4817C272.443 36.4817 272.414 36.5417 272.385 36.5417C272.239 36.4817 272.092 36.3916 271.946 36.3016C266.888 33.3309 261.831 30.3602 256.744 27.4195C256.51 27.2995 256.305 27.1794 256.013 27.1194C257.065 31.5905 258.293 36.0315 259.433 40.5626C255.106 41.7629 250.809 42.9332 246.423 43.9835C249.581 38.4021 252.709 32.7908 255.925 27.1194C255.691 27.0894 255.545 27.0294 255.399 27.0294C252.534 27.0294 249.698 27.0294 246.833 27.0594C243.646 27.0594 240.459 27.0594 237.302 27.0594C237.185 27.0594 237.068 27.0594 236.805 26.9994Z" fill="white"/>
<path d="M246.189 44.1035C246.686 44.4335 247.213 44.7936 247.71 45.0937C252.621 48.0344 257.533 50.9451 262.474 53.8558C262.591 53.9158 262.708 54.0058 262.942 54.1559H229.642C229.846 54.0358 229.963 53.9158 230.08 53.8558C235.197 50.8251 240.284 47.7643 245.4 44.7336C245.692 44.5536 245.926 44.3135 246.189 44.1035Z" fill="white"/>
<path d="M219.936 36.8717C225.403 27.0894 230.841 17.277 236.308 7.49469C236.337 7.49469 236.395 7.49469 236.425 7.5247C236.425 7.70474 236.454 7.88478 236.454 8.03482C236.454 14.1563 236.454 20.2477 236.454 26.3692C236.454 26.7293 236.425 27.0294 236.045 27.2394C230.753 30.4202 225.49 33.6309 220.199 36.8417" fill="white"/>
<path d="M263.175 54.0058C261.977 49.5648 260.778 45.1537 259.55 40.6226C263.877 39.3924 268.146 38.1621 272.414 36.9318L272.502 37.0518C269.432 42.6931 266.362 48.3345 263.322 54.0058C263.263 54.0058 263.234 54.0058 263.175 54.0058Z" fill="white"/>
<path d="M246.219 44.1034C245.517 43.9234 244.815 43.7734 244.114 43.5933C240.605 42.6631 237.097 41.7029 233.618 40.7426C233.443 40.6826 233.267 40.6226 233.033 40.5626C234.203 36.1215 235.343 31.7405 236.542 27.1794C236.717 27.4494 236.834 27.6295 236.951 27.8095C239.465 32.2206 241.95 36.6316 244.464 41.0727C245.049 42.093 245.634 43.1132 246.219 44.1334V44.1034Z" fill="white"/>
<path d="M219.965 37.2918C224.233 38.4021 228.531 39.5123 232.887 40.6526C231.718 45.1237 230.548 49.5648 229.379 53.9758C229.35 53.9758 229.291 53.9758 229.262 53.9758C226.134 48.4245 223.005 42.9032 219.877 37.3518" fill="white"/>
<path d="M255.633 7.10459C252.475 10.3454 249.318 13.5861 246.219 16.7669C243.149 13.6162 239.991 10.3754 236.834 7.1346C236.834 7.1346 236.863 7.10459 236.892 7.10459C243.032 7.10459 249.201 7.10459 255.34 7.07458C255.428 7.07458 255.545 7.07459 255.633 7.10459Z" fill="white"/>
</g>
<defs>
<linearGradient id="paint0_linear_4003_8" x1="18.7923" y1="4.07391" x2="52.0194" y2="18.4652" gradientUnits="userSpaceOnUse">
<stop stop-color="#383942"/>
<stop offset="0.1" stop-color="#40414A"/>
<stop offset="0.2" stop-color="#818187"/>
<stop offset="0.3" stop-color="#B8B8BB"/>
<stop offset="0.4" stop-color="white"/>
</linearGradient>
<linearGradient id="paint1_linear_4003_8" x1="3.32669" y1="34.8314" x2="28.1423" y2="7.95739" gradientUnits="userSpaceOnUse">
<stop stop-color="#4B2A20"/>
<stop offset="0.1" stop-color="#523228"/>
<stop offset="0.2" stop-color="#866F69"/>
<stop offset="0.3" stop-color="#B2A4A0"/>
<stop offset="0.4" stop-color="white"/>
</linearGradient>
<linearGradient id="paint2_linear_4003_8" x1="27.037" y1="59.4673" x2="8.28461" y2="27.8124" gradientUnits="userSpaceOnUse">
<stop stop-color="#2D3F48"/>
<stop offset="0.1" stop-color="#35474F"/>
<stop offset="0.2" stop-color="#768187"/>
<stop offset="0.3" stop-color="#ADB4B7"/>
<stop offset="0.4" stop-color="white"/>
</linearGradient>
<linearGradient id="paint3_linear_4003_8" x1="57.179" y1="43.9234" x2="21.814" y2="51.2314" gradientUnits="userSpaceOnUse">
<stop stop-color="#48403C"/>
<stop offset="0.1" stop-color="#504844"/>
<stop offset="0.2" stop-color="#8C8785"/>
<stop offset="0.3" stop-color="#C0BDBC"/>
<stop offset="0.4" stop-color="white"/>
</linearGradient>
<linearGradient id="paint4_linear_4003_8" x1="52.092" y1="9.68523" x2="48.1212" y2="46.4825" gradientUnits="userSpaceOnUse">
<stop stop-color="#3B433B"/>
<stop offset="0.1" stop-color="#434B43"/>
<stop offset="0.2" stop-color="#848984"/>
<stop offset="0.3" stop-color="#BBBDBB"/>
<stop offset="0.4" stop-color="white"/>
</linearGradient>
<clipPath id="clip0_4003_8">
<rect width="436.083" height="105.205" fill="white" transform="translate(0.52002 0.173035)"/>
</clipPath>
</defs>
</svg>
